Coordinates
version=1
nRows=24
nColumns=22
inDegrees=yes

Units are S.I. units (second, meters, Newtons, ...)
If the header above contains a line with 'inDegrees', this indicates whether rotational values are in degrees (yes) or radians (no).

endheader
time	pelvis_tilt	pelvis_list	pelvis_rotation	pelvis_tx	pelvis_ty	pelvis_tz	hip_flexion_r	hip_adduction_r	hip_rotation_r	knee_angle_r	ankle_angle_r	subtalar_angle_r	hip_flexion_l	hip_adduction_l	hip_rotation_l	knee_angle_l	ankle_angle_l	subtalar_angle_l	lumbar_extension	lumbar_bending	lumbar_rotation
      3.55000000	     -1.47977933	     -5.31409946	    -69.47454179	     -0.01449828	      0.98942024	      0.45095253	     20.80203960	      6.29990185	    -11.98686724	    -26.20285244	      1.89822032	     -7.32269705	     -1.36191164	     -3.48751104	     -2.36723727	    -54.19967602	     -1.52014653	     18.76595809	    -12.89386279	      5.44968381	     -3.45354090
      3.56000000	     -1.64065305	     -5.39209260	    -69.50643034	     -0.01252482	      0.99087314	      0.45743826	     20.20706663	      6.57296829	    -11.92385545	    -25.94440562	      2.24460029	     -7.33110623	     -0.24842661	     -4.11656725	     -2.42821761	    -55.68079064	     -1.59754626	     18.90846087	    -12.90990333	      5.60390737	     -3.30839286
      3.57000000	     -1.82693060	     -5.46588572	    -69.59997294	     -0.01080498	      0.99235001	      0.46381726	     19.59411776	      6.90712305	    -11.78433402	    -25.59990947	      2.51456845	     -7.32081291	      0.85702998	     -4.82556707	     -2.63039128	    -56.95821664	     -1.34450625	     18.74579054	    -12.92491922	      5.76099194	     -3.07962872
      3.58000000	     -2.03272320	     -5.52923875	    -69.77610753	     -0.00936388	      0.99382201	      0.47008786	     18.98459439	      7.29404481	    -11.55695937	    -25.20376091	      2.72340564	     -7.27205396	      1.94246996	     -5.59596622	     -2.97200700	    -58.01281083	     -0.82151046	     17.88419717	    -12.94068665	      5.90591918	     -2.75273110
      3.59000000	     -2.23888455	     -5.62806375	    -70.04362093	     -0.00814870	      0.99536421	      0.47626582	     18.31752587	      7.72981750	    -11.22383171	    -24.75245400	      2.86875659	     -7.23648069	      2.92736539	     -6.40750003	     -3.43516881	    -58.81636991	     -0.01705222	     16.63782617	    -13.01475357	      6.04701340	     -2.32350266
      3.60000000	     -2.43261669	     -5.71773675	    -70.40253247	     -0.00711790	      0.99690133	      0.48234082	     17.64923855	      8.16840639	    -10.82341313	    -24.28256324	      2.98570379	     -7.19433808	      3.84277066	     -7.20604359	     -3.98796334	    -59.36398634	      0.99685951	     14.97173176	    -13.10075716	      6.15328806	     -1.78063596
      3.61000000	     -2.60892926	     -5.79489767	    -70.84681673	     -0.00624519	      0.99840636	      0.48825081	     16.99332022	      8.60188571	    -10.31828741	    -23.81438778	      3.06176011	     -7.15025257	      4.69633451	     -7.96682737	     -4.60195108	    -59.67374720	      2.13822564	     13.05092609	    -13.20598688	      6.22863112	     -1.17860560
      3.62000000	     -2.75819989	     -5.84986747	    -71.36384442	     -0.00547782	      0.99985474	      0.49397920	     16.36347145	      9.00318225	     -9.74522294	    -23.36496835	      3.12017455	     -7.10602957	      5.49207771	     -8.65307763	     -5.23765018	    -59.75055070	      3.33902509	     10.99995003	    -13.32043762	      6.26340627	     -0.52514246
      3.63000000	     -2.87958529	     -5.87591634	    -71.93403552	     -0.00476760	      1.00122317	      0.49949052	     15.77221676	      9.35897396	     -9.12883663	    -22.94264591	      3.17495845	     -7.06455524	      6.24606986	     -9.24149199	     -5.85164396	    -59.61210174	      4.52288831	      8.98766463	    -13.43857737	      6.26038543	      0.15576782
      3.64000000	     -2.96984155	     -5.86982390	    -72.53993630	     -0.00407081	      1.00249042	      0.50477250	     15.22908544	      9.65695196	     -8.49348710	    -22.55825123	      3.22477232	     -7.02569857	      6.96915511	     -9.71479079	     -6.41305704	    -59.27799207	      5.63507592	      7.19377481	    -13.55264256	      6.22165666	      0.83354924
      3.65000000	     -3.03930832	     -5.83034467	    -73.15419556	     -0.00334409	      1.00363069	      0.50981470	     14.74341166	      9.90060851	     -7.86778385	    -22.21545419	      3.28724520	     -6.99015218	      7.68057586	    -10.07574213	     -6.88237091	    -58.77217292	      6.63491481	      5.74377172	    -13.65328287	      6.15945410	      1.49706959
      3.66000000	     -3.08939627	     -5.76068408	    -73.76008045	     -0.00252667	      1.00463557	      0.51459084	     14.31890032	     10.08591892	     -7.27125828	    -21.92002059	      3.36626542	     -6.95488728	      8.39016204	    -10.31604451	     -7.22860233	    -58.11945103	      7.51458258	      4.69821846	    -13.74344583	      6.09077048	      2.12245740
      3.67000000	     -3.12746348	     -5.66451105	    -74.34895486	     -0.00163333	      1.00549577	      0.51912778	     13.95762544	     10.22379888	     -6.71726441	    -21.67639662	      3.46401663	     -6.91805454	      9.10175110	    -10.45898986	     -7.46120900	    -57.33955659	      8.29076394	      4.06201209	    -13.81938116	      6.01601649	      2.70595185
      3.68000000	     -3.16156000	     -5.54414246	    -74.91185217	     -0.00064228	      1.00620711	      0.52345650	     13.65859338	     10.32183993	     -6.23407006	    -21.48191682	      3.59030474	     -6.90608106	      9.81669747	    -10.51887285	     -7.57463152	    -56.44866309	      9.01021560	      3.89816329	    -13.87202888	      5.95063280	      3.23308581
      3.69000000	     -3.18026128	     -5.41104333	    -75.45428824	      0.00042145	      1.00681722	      0.52757349	     13.40214581	     10.38277177	     -5.76091928	    -21.32669141	      3.71972708	     -6.87383026	     10.51500128	    -10.48831563	     -7.56794009	    -55.45165113	      9.65684324	      3.83979716	    -13.92166185	      5.87897335	      3.71415120
      3.70000000	     -3.19325064	     -5.26082407	    -75.98257553	      0.00152307	      1.00730689	      0.53151352	     13.19798527	     10.41897123	     -5.31407392	    -21.21648219	      3.86605997	     -6.83151226	     11.20533360	    -10.39336496	     -7.46120284	    -54.37468249	     10.26751916	      3.94070785	    -13.95761470	      5.80475038	      4.15589861
      3.71000000	     -3.19725203	     -5.09710688	    -76.48736915	      0.00268903	      1.00770225	      0.53531096	     13.03652752	     10.42311725	     -4.92604237	    -21.14306980	      4.03125688	     -6.79341515	     11.87984503	    -10.24226525	     -7.26232404	    -53.22805366	     10.85776410	      4.14198051	    -13.97530449	      5.72956415	      4.55456086
      3.72000000	     -3.19462535	     -4.90458711	    -76.97629326	      0.00385889	      1.00799111	      0.53894066	     12.93914838	     10.41192118	     -4.50722625	    -21.11560159	      4.20174203	     -6.73424692	     12.56567274	    -10.03239044	     -6.94846610	    -52.04162498	     11.34847706	      4.44207919	    -13.96350573	      5.64263183	      4.91004068
      3.73000000	     -3.17637143	     -4.73082324	    -77.44152785	      0.00509334	      1.00826315	      0.54248653	     12.84344063	     10.37024489	     -4.17619660	    -21.11974302	      4.39003266	     -6.70494357	     13.18892696	     -9.78040641	     -6.55305095	    -50.80707524	     11.83288494	      4.60975798	    -13.96444610	      5.55191712	      5.23116569
      3.74000000	     -3.14483881	     -4.53960822	    -77.89526166	      0.00631660	      1.00847378	      0.54590513	     12.79114230	     10.31280787	     -3.80720197	    -21.15962027	      4.58118683	     -6.66412500	     13.80303647	     -9.48467749	     -6.07011871	    -49.56024858	     12.21836110	      4.74229686	    -13.94497350	      5.44041530	      5.51877390
      3.75000000	     -3.10347992	     -4.34570585	    -78.33546930	      0.00754297	      1.00865556	      0.54924055	     12.76219870	     10.24233270	     -3.44000749	    -21.22940785	      4.77731644	     -6.61518519	     14.38612661	     -9.16197147	     -5.52282947	    -48.30577318	     12.55491015	      4.81180636	    -13.91368290	      5.31874215	      5.76829371
      3.76000000	     -3.05207832	     -4.17007234	    -78.75925914	      0.00879174	      1.00885262	      0.55251341	     12.72686502	     10.16034639	     -3.08448285	    -21.31673044	      4.96825055	     -6.57143835	     14.91235465	     -8.82461913	     -4.93431424	    -47.04914450	     12.88205755	      4.82163862	    -13.89285656	      5.19398706	      5.98906320
      3.77000000	     -2.99496328	     -4.00612502	    -79.17045916	      0.01002891	      1.00905300	      0.55572349	     12.69072307	     10.07550585	     -2.71836725	    -21.41669393	      5.15464906	     -6.52251280	     15.39399158	     -8.48205150	     -4.32151324	    -45.80589411	     13.19066829	      4.79418756	    -13.87396079	      5.06183485	      6.17671038
      3.78000000	     -2.93675795	     -3.86563341	    -79.56225279	      0.01127783	      1.00928391	      0.55890235	     12.63303038	      9.99252042	     -2.35272065	    -21.51628662	      5.32710505	     -6.47620914	     15.81474531	     -8.14524174	     -3.70275345	    -44.57285578	     13.50996504	      4.75399531	    -13.86575929	      4.93429566	      6.33359972
